<svg width="18" height="18" fill="none" xmlns="http://www.w3.org/2000/svg"><path d="M2.25 9c0 1.24 1.01 2.25 2.25 2.25.596 0 1.134-.236 1.537-.615l4.493 2.568c-.013.098-.03.195-.03.297 0 1.24 1.01 2.25 2.25 2.25S15 14.74 15 13.5s-1.01-2.25-2.25-2.25c-.595 0-1.134.236-1.537.615L6.72 9.298c.014-.098.03-.196.03-.298 0-.102-.016-.2-.03-.298l4.493-2.567c.403.379.942.615 1.537.615C13.99 6.75 15 5.74 15 4.5s-1.01-2.25-2.25-2.25S10.5 3.26 10.5 4.5c0 .102.017.2.03.298L6.037 7.365A2.237 2.237 0 0 0 4.5 6.75C3.26 6.75 2.25 7.76 2.25 9z" fill="#8C8C8C"/></svg>