<svg width="16" height="16" fill="none" xmlns="http://www.w3.org/2000/svg"><g clip-path="url(#clip0)" fill="#8C8C8C"><path d="M12.286 9.143h-.572a.277.277 0 0 0-.205.08.277.277 0 0 0-.08.205v2.857c0 .393-.14.73-.42 1.01-.28.28-.616.419-1.009.419H2.571c-.392 0-.729-.14-1.009-.42-.28-.28-.42-.616-.42-1.008v-7.43c0-.392.14-.728.42-1.008.28-.28.617-.42 1.01-.42h6.285a.278.278 0 0 0 .205-.08.278.278 0 0 0 .08-.205V2.57a.278.278 0 0 0-.08-.205.278.278 0 0 0-.205-.08H2.571c-.708 0-1.314.251-1.817.754A2.477 2.477 0 0 0 0 4.857v7.429c0 .708.251 1.314.754 1.816a2.477 2.477 0 0 0 1.817.755h7.43c.707 0 1.313-.252 1.816-.755a2.476 2.476 0 0 0 .755-1.816V9.429a.278.278 0 0 0-.08-.206.278.278 0 0 0-.206-.08z"/><path d="M15.83 1.313a.55.55 0 0 0-.401-.17h-4.572a.549.549 0 0 0-.401.17.55.55 0 0 0-.17.401.55.55 0 0 0 .17.402l1.57 1.572-5.82 5.821a.282.282 0 0 0 0 .41l1.017 1.019a.282.282 0 0 0 .411 0l5.822-5.822 1.571 1.572c.113.113.247.17.402.17a.55.55 0 0 0 .402-.17.549.549 0 0 0 .17-.402V1.714a.55.55 0 0 0-.17-.401z"/></g><defs><clipPath id="clip0"><path fill="#fff" d="M0 0H16V16H0z"/></clipPath></defs></svg>