<svg width="24" height="24" fill="none" xmlns="http://www.w3.org/2000/svg"><path fill-rule="evenodd" clip-rule="evenodd" d="M4 5.25A1.75 1.75 0 0 0 2.25 7v10c0 .967.783 1.75 1.75 1.75h10A1.75 1.75 0 0 0 15.75 17V7A1.75 1.75 0 0 0 14 5.25H4zM.75 7A3.25 3.25 0 0 1 4 3.75h10A3.25 3.25 0 0 1 17.25 7v10A3.25 3.25 0 0 1 14 20.25H4A3.25 3.25 0 0 1 .75 17V7z" fill="#F84B94"/><path fill-rule="evenodd" clip-rule="evenodd" d="M16.875 8.475l4.151-2.408a.477.477 0 0 1 .724.395v11.076c0 .342-.39.59-.724.396l-4.15-2.408-.753 1.298 4.15 2.407c1.289.747 2.977-.142 2.977-1.693V6.462c0-1.55-1.688-2.44-2.977-1.692l-4.148 2.407.753 1.298h-.003z" fill="#F84B94"/></svg>