<svg width="24" height="24" fill="none" xmlns="http://www.w3.org/2000/svg"><g clip-path="url(#clip0)"><path d="M20.1 21.237V23.6a.4.4 0 0 1-.8 0v-2.363a3.327 3.327 0 0 0-3.329-3.328c-.87 0-1.66-.444-2.112-1.187a.4.4 0 1 1 .683-.416c.306.502.84.802 1.43.802a4.126 4.126 0 0 1 4.128 4.13zm-6.673-3.097L12 19.244l-2.425-1.878a2.45 2.45 0 0 0 .917-1.727 5.356 5.356 0 0 0 6.859-5.133c0-.03 0-2.8-.002-2.831a.4.4 0 0 0-.399-.375c-.068 0-.561.097-1.044-.193-.752-.452-.756-1.445-.756-1.455a.4.4 0 0 0-.63-.329 12.89 12.89 0 0 1-5.673 2.25.4.4 0 0 0 .055.797c.063 0 1.36-.159 2.835-.694.95-.345 1.86-.795 2.713-1.342.295 1.107 1.122 1.722 2.1 1.778v2.394a4.555 4.555 0 0 1-4.55 4.55 4.555 4.555 0 0 1-4.55-4.55V7.7a.4.4 0 0 0-.8 0v2.806a5.357 5.357 0 0 0 3.05 4.83v.105c0 .923-.747 1.667-1.671 1.667-.506 0-1.005.092-1.476.272l-.259-.205A4.886 4.886 0 0 1 5.27 10.64c.59-.884.93-1.942.93-3.073V5.4C6.2 2.864 8.264.8 10.8.8h2.4c2.537 0 4.6 2.064 4.6 4.6v2.167c0 1.1.32 2.16.926 3.066a4.886 4.886 0 0 1-.04 5.492.4.4 0 0 0 .66.453 5.686 5.686 0 0 0 .045-6.39 4.7 4.7 0 0 1-.79-2.621V5.4c0-2.978-2.423-5.4-5.4-5.4h-2.4a5.406 5.406 0 0 0-5.4 5.4v2.167c0 .939-.276 1.848-.797 2.63a5.684 5.684 0 0 0 1.167 7.583 4.117 4.117 0 0 0-1.87 3.457V23.6a.4.4 0 0 0 .8 0v-2.363a3.327 3.327 0 0 1 3.328-3.328c.265 0 .527-.042.778-.125l2.948 2.282a.4.4 0 0 0 .49 0l1.671-1.294a.4.4 0 1 0-.49-.632z" fill="#F84B94"/></g><defs><clipPath id="clip0"><path fill="#fff" d="M0 0H24V24H0z"/></clipPath></defs></svg>