<svg xmlns="http://www.w3.org/2000/svg" width="24" height="24"><path fill="#F84B94" d="M.108 9.122a2.078 2.078 0 0 1 2.005-1.454H8.11l1.888-5.734A2.077 2.077 0 0 1 12 .484h.01c.93.004 1.715.58 2 1.466l1.832 5.718h6.046c.932 0 1.72.573 2.006 1.46.292.87-.02 1.828-.77 2.358L18.23 15.02l1.882 5.718a2.077 2.077 0 0 1-.758 2.362c-.36.267-.796.412-1.245.414-.43 0-.86-.135-1.235-.407l-4.9-3.542-4.842 3.536a2.078 2.078 0 0 1-2.478.007 2.078 2.078 0 0 1-.774-2.354l1.84-5.734-4.85-3.54a2.078 2.078 0 0 1-.76-2.358H.108z"/></svg>