<svg width="18" height="18" fill="none" xmlns="http://www.w3.org/2000/svg"><path d="M13 6.75c0-3.108-2.91-5.625-6.5-5.625S0 3.642 0 6.75c0 1.206.44 2.317 1.188 3.234A8.023 8.023 0 0 1 .067 11.9a.306.306 0 0 0-.046.306c.04.106.128.169.228.169 1.144 0 2.09-.432 2.772-.879a7.229 7.229 0 0 0 3.478.879c3.59 0 6.5-2.517 6.5-5.625zm3.813 7.734C17.558 13.57 18 12.456 18 11.25c0-2.352-1.672-4.366-4.04-5.207.027.232.04.468.04.707 0 3.723-3.366 6.75-7.5 6.75-.338 0-.666-.028-.99-.067.984 2.022 3.296 3.442 5.99 3.442a7.188 7.188 0 0 0 3.478-.879c.681.447 1.628.879 2.772.879.1 0 .19-.067.228-.169a.309.309 0 0 0-.047-.306c-.01-.01-.7-.85-1.119-1.916z" fill="#8C8C8C"/></svg>