<svg width="24" height="24" fill="none" xmlns="http://www.w3.org/2000/svg"><path d="M21.26 2.59A1.827 1.827 0 0 0 19.432.764h-7.65c-.484 0-.948.192-1.29.535L.534 11.254a1.827 1.827 0 0 0 0 2.584l7.649 7.65c.357.356.824.534 1.292.534.294 0 .585-.079.852-.22.976-.804-.468.593 10.396-10.27.343-.342.536-.807.536-1.292V2.59zm-.914 7.65a.908.908 0 0 1-.267.646l-9.957 9.955a.907.907 0 0 1-.646.268.908.908 0 0 1-.646-.268L1.18 13.192a.908.908 0 0 1-.268-.646c0-.244.096-.473.268-.646l9.957-9.954a.908.908 0 0 1 .646-.268h7.649c.503 0 .913.41.913.914v7.648z" fill="#F84B94"/><path d="M23.087 2.592v8.562a.908.908 0 0 1-.268.646L12.027 22.59l.646.646 10.792-10.79c.343-.343.535-.808.535-1.292V2.592h-.913zm-6.85 1.37c-1.008 0-1.828.819-1.828 1.827 0 1.007.82 1.827 1.827 1.827 1.007 0 1.827-.82 1.827-1.827 0-1.008-.82-1.827-1.827-1.827zm0 2.74a.914.914 0 0 1 0-1.827.914.914 0 0 1 0 1.827z" fill="#F84B94"/></svg>