<svg width="24" height="24" fill="none" xmlns="http://www.w3.org/2000/svg"><g clip-path="url(#clip0)" fill="#F84B94"><path d="M17.453 24c-.168 0-.34-.021-.51-.066L1.48 19.793a2.018 2.018 0 0 1-1.413-2.45l1.95-7.272a.5.5 0 0 1 .966.258l-1.95 7.27c-.138.53.18 1.082.71 1.229l15.458 4.139a.995.995 0 0 0 1.216-.704l.781-2.894a.499.499 0 1 1 .966.26l-.78 2.89a1.997 1.997 0 0 1-1.93 1.48z"/><path d="M22 18.002H6c-1.103 0-2-.897-2-2v-12c0-1.104.897-2 2-2h16c1.103 0 2 .896 2 2v12c0 1.103-.897 2-2 2zm-16-15c-.551 0-1 .448-1 1v12c0 .55.449 1 1 1h16c.551 0 1-.45 1-1v-12c0-.552-.449-1-1-1H6z"/><path d="M9 9.001c-1.103 0-2-.897-2-2s.897-2 2-2 2 .897 2 2-.897 2-2 2zm0-3c-.551 0-1 .45-1 1 0 .551.449 1 1 1 .551 0 1-.449 1-1 0-.55-.449-1-1-1zm-4.43 10.93a.5.5 0 0 1-.354-.853l4.723-4.724c.566-.566 1.555-.566 2.12 0l1.407 1.406 3.892-4.67a1.502 1.502 0 0 1 1.142-.54h.01a1.5 1.5 0 0 1 1.14.523l5.23 6.102a.5.5 0 1 1-.76.651l-5.23-6.102a.495.495 0 0 0-.38-.174.53.53 0 0 0-.383.18l-4.243 5.091a.498.498 0 0 1-.362.18.481.481 0 0 1-.376-.147l-1.793-1.793a.514.514 0 0 0-.707 0l-4.723 4.723a.498.498 0 0 1-.353.146z"/></g><defs><clipPath id="clip0"><path fill="#fff" d="M0 0H24V24H0z"/></clipPath></defs></svg>