<svg width="32" height="32" fill="none" xmlns="http://www.w3.org/2000/svg"><path d="M31.446 7.013c0-.824-.68-1.49-1.516-1.49H17.724a1.53 1.53 0 0 0-1.072.437c-.285.279-.444.658-.444 1.053 0 .394.16.773.444 1.053.284.279.67.436 1.072.436H29.93a1.53 1.53 0 0 0 1.072-.436c.284-.28.444-.659.444-1.053zm0 8.987c0-.823-.68-1.489-1.516-1.489H2.486a1.53 1.53 0 0 0-1.072.436c-.285.28-.444.658-.444 1.053 0 .395.16.774.444 1.053.284.28.67.436 1.072.436H29.93a1.53 1.53 0 0 0 1.072-.436c.284-.28.444-.658.444-1.053zm-1.516 7.498c.402 0 .787.157 1.072.436.284.28.444.658.444 1.053 0 .395-.16.774-.444 1.053a1.53 1.53 0 0 1-1.072.436H11.629a1.53 1.53 0 0 1-1.072-.436 1.476 1.476 0 0 1-.445-1.053c0-.395.16-.773.444-1.053a1.53 1.53 0 0 1 1.073-.436h18.3z" fill="#141414"/></svg>