<svg width="24" height="24" fill="none" xmlns="http://www.w3.org/2000/svg"><g clip-path="url(#clip0)"><path d="M.108 9.122a2.078 2.078 0 0 1 2.005-1.454H8.11l1.888-5.734a2.077 2.077 0 0 1 2.002-1.45h.01c.93.004 1.715.58 2 1.466l1.832 5.718h6.046c.932 0 1.72.573 2.006 1.46a2.077 2.077 0 0 1-.77 2.358L18.23 15.02l1.882 5.718a2.077 2.077 0 0 1-.758 2.362 2.102 2.102 0 0 1-1.245.414c-.43 0-.86-.135-1.235-.407l-4.9-3.542-4.842 3.536a2.078 2.078 0 0 1-2.478.007 2.078 2.078 0 0 1-.774-2.354L5.72 15.02.87 11.48a2.078 2.078 0 0 1-.76-2.358zm1.59 1.222l5.67 4.14-2.148 6.7a.682.682 0 0 0 .258.785c.097.07.444.277.826-.003l5.667-4.138 5.727 4.14c.385.278.73.069.827-.002a.682.682 0 0 0 .253-.787l-2.204-6.695 5.724-4.138a.682.682 0 0 0 .257-.786.682.682 0 0 0-.668-.486h-7.072L12.67 2.379a.682.682 0 0 0-.666-.488H12a.682.682 0 0 0-.668.483l-2.206 6.7H2.113a.682.682 0 0 0-.668.485.682.682 0 0 0 .254.785z" fill="#F84B94"/></g><defs><clipPath id="clip0"><path fill="#fff" transform="matrix(-1 0 0 1 24 0)" d="M0 0H24V24H0z"/></clipPath></defs></svg>